<?xml version="1.0" encoding="UTF-8"?><svg xmlns="http://www.w3.org/2000/svg" xmlns:xlink="http://www.w3.org/1999/xlink" contentScriptType="text/ecmascript" width="375pt" zoomAndPan="magnify" contentStyleType="text/css" viewBox="0 0 375 374.999991" height="374.999991pt" preserveAspectRatio="xMidYMid meet" version="1.2"><defs><g/></defs><g xml:id="surface1" id="surface1"><g style="fill:rgb(97.24884%,100%,95.689392%);fill-opacity:1;"><g transform="translate(18.732592, 312.275941)"><path style="stroke:none;" d="M 60.6875 -2.96875 C 60.6875 13.582031 54.742188 27.550781 42.859375 38.9375 C 30.984375 50.332031 12.382812 56.03125 -12.9375 56.03125 L -12.9375 24.1875 C 0.78125 24.1875 9.972656 21.925781 14.640625 17.40625 C 19.734375 12.3125 22.28125 4.8125 22.28125 -5.09375 L 22.28125 -305.375 L 60.6875 -305.375 Z M 60.6875 -2.96875 "/></g></g><path style="fill:none;stroke-width:6.156903;stroke-linecap:butt;stroke-linejoin:miter;stroke:rgb(20.388794%,1.568604%,50.979614%);stroke-opacity:1;stroke-miterlimit:4;" d="M 80.924258 616.038328 C 80.924258 638.106038 72.997174 656.736248 57.153423 671.91854 C 41.309672 687.106041 16.507587 694.699792 -17.25804 694.699792 L -17.25804 652.257081 C 1.038836 652.257081 13.299254 649.236247 19.523212 643.199788 C 26.314879 636.41333 29.710713 626.413329 29.710713 613.210203 L 29.710713 212.845593 L 80.924258 212.845593 Z M 80.924258 616.038328 " transform="matrix(0.75,0,0,0.75,18.732592,-152.724028)"/><g style="fill:rgb(97.24884%,100%,95.689392%);fill-opacity:1;"><g transform="translate(70.766844, 312.808381)"><path style="stroke:none;" d="M 297.984375 -305.625 L 297.984375 0 L 259.53125 0 L 259.53125 -248.5 L 159.078125 -116.59375 L 58.40625 -248.5 L 58.40625 0 L 19.96875 0 L 19.96875 -305.625 L 60.953125 -305.625 L 159.078125 -177.125 L 256.984375 -305.625 Z M 297.984375 -305.625 "/></g></g><path style="fill:none;stroke-width:5.755209;stroke-linecap:butt;stroke-linejoin:miter;stroke:rgb(20.388794%,1.568604%,50.979614%);stroke-opacity:1;stroke-miterlimit:4;" d="M 371.067386 199.41166 L 371.067386 580.000265 L 323.196471 580.000265 L 323.196471 270.554036 L 198.097772 434.796852 L 72.731529 270.554036 L 72.731529 580.000265 L 24.860614 580.000265 L 24.860614 199.41166 L 75.908005 199.41166 L 198.097772 359.422417 L 320.024859 199.41166 Z M 371.067386 199.41166 " transform="matrix(0.803022,0,0,0.803022,70.766844,-152.944488)"/><g style="fill:rgb(73.329163%,59.999084%,85.488892%);fill-opacity:1;"><g transform="translate(18.732592, 312.863109)"><path style="stroke:none;" d="M 109.984375 -86.21875 C 114.804688 -86.132812 119.46875 -84.847656 123.96875 -82.359375 C 130.632812 -78.585938 134.9375 -73.125 136.875 -65.96875 C 137.507812 -63.632812 137.828125 -61.34375 137.828125 -59.09375 C 137.828125 -54.75 136.703125 -50.566406 134.453125 -46.546875 C 130.679688 -39.953125 124.210938 -35.25 115.046875 -32.4375 C 113.359375 -26.8125 109.257812 -20.78125 102.75 -14.34375 C 92.050781 -3.5 78.984375 1.921875 63.546875 1.921875 C 48.191406 1.921875 35.226562 -3.359375 24.65625 -13.921875 C 14.082031 -24.492188 8.796875 -37.015625 8.796875 -51.484375 C 8.796875 -65.878906 13.863281 -78.503906 24 -89.359375 C 31.070312 -96.910156 37.222656 -100.96875 42.453125 -101.53125 C 30.796875 -114 24.96875 -125.535156 24.96875 -136.140625 C 24.96875 -146.597656 28.882812 -155.785156 36.71875 -163.703125 C 44.5625 -171.617188 54.269531 -175.578125 65.84375 -175.578125 C 77.5 -175.578125 87.347656 -171.519531 95.390625 -163.40625 C 99.734375 -159.21875 103.066406 -153.347656 105.390625 -145.796875 L 86.09375 -138.203125 C 83.601562 -144.710938 81.234375 -149.09375 78.984375 -151.34375 C 75.285156 -155.039062 70.90625 -156.890625 65.84375 -156.890625 C 60.851562 -156.890625 56.410156 -154.9375 52.515625 -151.03125 C 48.617188 -147.132812 46.671875 -142.171875 46.671875 -136.140625 C 46.671875 -130.117188 48.71875 -124.914062 52.8125 -120.53125 C 56.914062 -116.144531 60.570312 -113.347656 63.78125 -112.140625 C 67 -110.941406 73.273438 -110.300781 82.609375 -110.21875 L 82.609375 -92.015625 L 69.828125 -91.765625 C 56.796875 -89.359375 46.960938 -84.515625 40.328125 -77.234375 C 33.703125 -69.960938 30.390625 -61.378906 30.390625 -51.484375 C 30.390625 -41.679688 33.6875 -33.460938 40.28125 -26.828125 C 46.875 -20.191406 54.628906 -16.875 63.546875 -16.875 C 72.390625 -16.875 80.191406 -20.253906 86.953125 -27.015625 C 90.566406 -30.628906 92.816406 -33.765625 93.703125 -36.421875 C 90.640625 -38.347656 86.5 -42.003906 81.28125 -47.390625 C 78.46875 -50.046875 76.617188 -51.613281 75.734375 -52.09375 C 75.328125 -52.332031 74.960938 -52.453125 74.640625 -52.453125 C 74.316406 -52.453125 74.078125 -52.414062 73.921875 -52.34375 C 73.359375 -52.175781 72.835938 -51.691406 72.359375 -50.890625 C 71.867188 -49.921875 71.625 -49.035156 71.625 -48.234375 C 71.625 -47.671875 71.664062 -47.109375 71.75 -46.546875 C 72.15625 -45.335938 72.640625 -44.570312 73.203125 -44.25 C 73.359375 -44.175781 73.757812 -44.140625 74.40625 -44.140625 L 74.40625 -25.5625 L 73.203125 -25.5625 C 69.265625 -25.5625 65.40625 -26.566406 61.625 -28.578125 C 56.15625 -31.710938 52.617188 -36.296875 51.015625 -42.328125 C 50.453125 -44.335938 50.171875 -46.304688 50.171875 -48.234375 C 50.171875 -51.847656 51.132812 -55.382812 53.0625 -58.84375 C 56.4375 -64.476562 61.335938 -68.21875 67.765625 -70.0625 C 70.179688 -70.707031 72.515625 -71.03125 74.765625 -71.03125 C 79.179688 -71.03125 83.28125 -69.90625 87.0625 -67.65625 C 90.28125 -65.882812 94.257812 -62.503906 99 -57.515625 C 102.539062 -54.304688 105.035156 -52.296875 106.484375 -51.484375 C 107.441406 -50.921875 108.328125 -50.640625 109.140625 -50.640625 C 109.617188 -50.640625 110.179688 -50.765625 110.828125 -51.015625 C 112.671875 -51.492188 114.15625 -52.65625 115.28125 -54.5 C 116.082031 -56.03125 116.484375 -57.5625 116.484375 -59.09375 C 116.484375 -59.894531 116.320312 -60.78125 116 -61.75 C 115.363281 -64.070312 114.160156 -65.757812 112.390625 -66.8125 C 111.671875 -67.132812 110.867188 -67.332031 109.984375 -67.40625 Z M 109.984375 -86.21875 "/></g></g><path style="fill:none;stroke-width:2.877604;stroke-linecap:butt;stroke-linejoin:miter;stroke:rgb(11.369324%,12.939453%,50.19989%);stroke-opacity:1;stroke-miterlimit:4;" d="M 120.605829 195.445621 C 125.89194 195.535579 131.006703 196.944924 135.945833 199.677937 C 143.262428 203.824579 147.978804 209.817504 150.094962 217.665281 C 150.797493 220.222662 151.153041 222.732922 151.153041 225.200345 C 151.153041 229.963843 149.91933 234.547424 147.447623 238.955373 C 143.305265 246.18201 136.20714 251.339609 126.157531 254.428172 C 124.306964 260.59673 119.809057 267.210795 112.668094 274.261799 C 100.943551 286.166259 86.618789 292.116347 69.689524 292.116347 C 52.854502 292.116347 38.636833 286.320473 27.045085 274.724441 C 15.449053 263.132693 9.653178 249.403368 9.653178 233.532182 C 9.653178 217.750955 15.209164 203.910253 26.316852 192.010077 C 34.07467 183.721078 40.817247 179.270292 46.548865 178.653436 C 33.766242 164.988367 27.374931 152.33854 27.374931 140.69967 C 27.374931 129.240718 31.671503 119.165406 40.26893 110.482304 C 48.862074 101.799203 59.50712 97.45551 72.204068 97.45551 C 84.986691 97.45551 95.785951 101.910579 104.601848 110.812151 C 109.365346 115.395732 113.023643 121.834164 115.576741 130.11888 L 94.419444 138.450717 C 91.68643 131.309755 89.086212 126.507704 86.618789 124.035997 C 82.562105 119.983597 77.75577 117.953113 72.204068 117.953113 C 66.738041 117.953113 61.86745 120.09069 57.592297 124.365843 C 53.317144 128.64528 51.175283 134.085606 51.175283 140.69967 C 51.175283 147.313735 53.424237 153.019651 57.922144 157.825986 C 62.415767 162.628037 66.429613 165.695181 69.955115 167.014567 C 73.480617 168.338237 80.360273 169.04505 90.585514 169.130725 L 90.585514 189.101431 L 76.56918 189.362738 C 62.287255 192.010077 51.509414 197.321891 44.235656 205.298179 C 36.961898 213.278751 33.325019 222.690085 33.325019 233.532182 C 33.325019 244.288605 36.940479 253.301553 44.167116 260.575311 C 51.398037 267.849069 59.905506 271.485948 69.689524 271.485948 C 79.387868 271.485948 87.942458 267.784813 95.344728 260.37826 C 99.311453 256.411535 101.78316 252.971707 102.751281 250.063061 C 99.401411 247.946903 94.860667 243.93734 89.129049 238.030089 C 86.04477 235.121443 84.01857 233.399387 83.046166 232.872489 C 82.604942 232.606899 82.21084 232.474103 81.855291 232.474103 C 81.504026 232.474103 81.238435 232.521224 81.062803 232.606899 C 80.445947 232.782531 79.871929 233.313713 79.345031 234.196159 C 78.813849 235.254238 78.552543 236.222359 78.552543 237.104805 C 78.552543 237.721661 78.59538 238.338517 78.685338 238.955373 C 79.122277 240.279042 79.653459 241.114368 80.270315 241.465633 C 80.445947 241.555591 80.88717 241.598428 81.593984 241.598428 L 81.593984 261.963237 L 80.270315 261.963237 C 75.952324 261.963237 71.720008 260.862321 67.573366 258.660488 C 61.580441 255.22066 57.69939 250.195856 55.938781 243.581791 C 55.321925 241.379959 55.013497 239.220963 55.013497 237.104805 C 55.013497 233.13808 56.071576 229.257029 58.187734 225.465936 C 61.888869 219.293095 67.264938 215.193574 74.320226 213.167374 C 76.963282 212.46056 79.520663 212.109295 81.988087 212.109295 C 86.837258 212.109295 91.335165 213.343007 95.477523 215.814713 C 99.003025 217.750955 103.368137 221.456374 108.568574 226.922401 C 112.449625 230.447903 115.182638 232.649736 116.767615 233.532182 C 117.825694 234.149038 118.798099 234.457466 119.676262 234.457466 C 120.207443 234.457466 120.824299 234.324671 121.531113 234.063364 C 123.557312 233.532182 125.18941 232.255634 126.423122 230.22515 C 127.305568 228.550215 127.746791 226.87528 127.746791 225.200345 C 127.746791 224.322183 127.566875 223.349778 127.21561 222.291699 C 126.508796 219.734318 125.18941 217.88375 123.248885 216.739997 C 122.456396 216.384448 121.57395 216.165978 120.605829 216.07602 Z M 120.605829 195.445621 " transform="matrix(0.911883,0.000000000000000028,-0.000000000000000028,0.911883,18.732592,48.417182)"/></g></svg>